<svg width="112" height="32" viewBox="0 0 112 32" fill="none" xmlns="http://www.w3.org/2000/svg">
<path d="M16 32C24.8366 32 32 24.8366 32 16C32 7.16344 24.8366 0 16 0C7.16344 0 0 7.16344 0 16C0 24.8366 7.16344 32 16 32Z" fill="#F1A801"/>
<path d="M21.833 9.744C20.4213 8.54467 18.6273 7.88958 16.775 7.897C12.58 7.897 9.125 11.214 8.837 15.454H8.015C8.303 10.71 12.128 7.057 16.775 7.057C18.832 7.057 20.805 7.813 22.409 9.157L21.833 9.744ZM21.545 12.515C21.005 11.7517 20.2903 11.1286 19.4606 10.6977C18.6308 10.2668 17.71 10.0406 16.775 10.038C13.526 10.038 10.894 12.725 10.894 16C10.894 19.316 13.526 22.004 16.774 22.004C18.66 22.004 20.433 21.084 21.545 19.526L22.122 20.114C20.846 21.835 18.872 22.844 16.775 22.844C13.073 22.844 10.071 19.778 10.071 16C10.071 12.264 13.073 9.198 16.775 9.198C17.8178 9.20229 18.8451 9.45159 19.7738 9.92579C20.7026 10.4 21.507 11.0858 22.122 11.928L21.545 12.515ZM22.491 10.374L23.068 9.786C23.273 9.996 23.438 10.206 23.602 10.416L23.026 11.003C22.8596 10.7831 22.681 10.5728 22.491 10.373V10.374ZM16.734 24.984C12.087 24.984 8.262 21.332 7.974 16.588H8.796C9.084 20.828 12.539 24.145 16.734 24.145C18.584 24.145 20.354 23.515 21.792 22.298L22.368 22.885C20.7998 24.2332 18.8021 24.9779 16.734 24.985V24.984ZM22.491 21.668C22.697 21.458 22.861 21.248 23.026 21.038L23.602 21.625C23.437 21.835 23.273 22.045 23.068 22.255L22.491 21.668ZM6.823 16C6.823 21.584 11.305 26.16 16.775 26.16C19.736 26.16 22.532 24.859 24.425 22.466L25 23.053C22.944 25.573 19.983 27 16.775 27C10.812 27 6 22.045 6 16C6 9.912 10.853 5 16.775 5C19.94 5 22.945 6.427 25 8.947L24.424 9.535C22.532 7.184 19.736 5.84 16.774 5.84C11.304 5.84 6.823 10.416 6.823 16Z" fill="white"/>
<path d="M42.088 24H53.272V21.408H44.8V6.24H42.088V24ZM62.3534 24.312C67.4894 24.312 71.6414 20.304 71.6414 15.144C71.6414 10.08 67.6574 5.928 62.3534 5.928C57.0734 5.928 53.0654 10.08 53.0654 15.144C53.0654 20.304 57.2174 24.312 62.3534 24.312ZM62.3534 21.816C58.6814 21.816 55.8014 18.84 55.8014 15.168C55.8014 11.544 58.6094 8.424 62.3534 8.424C66.1214 8.424 68.9054 11.544 68.9054 15.168C68.9054 18.84 66.0254 21.816 62.3534 21.816ZM82.4303 24.312C87.7823 24.312 90.5663 20.4 90.5663 15.648V13.872H81.8543V16.464H87.8783V16.512C87.8783 19.776 85.5983 21.816 82.4543 21.816C78.5423 21.816 75.7823 18.864 75.7823 15.168C75.7823 11.52 78.5423 8.424 82.4063 8.424C84.1823 8.424 86.0783 9.072 87.3983 10.608L89.0543 8.76C87.3743 7.008 84.9983 5.928 82.3103 5.928C77.0543 5.928 73.0463 10.08 73.0463 15.168C73.0463 20.328 77.0783 24.312 82.4303 24.312ZM101.167 24.312C106.303 24.312 110.455 20.304 110.455 15.144C110.455 10.08 106.471 5.928 101.167 5.928C95.8868 5.928 91.8788 10.08 91.8788 15.144C91.8788 20.304 96.0308 24.312 101.167 24.312ZM101.167 21.816C97.4948 21.816 94.6148 18.84 94.6148 15.168C94.6148 11.544 97.4228 8.424 101.167 8.424C104.935 8.424 107.719 11.544 107.719 15.168C107.719 18.84 104.839 21.816 101.167 21.816Z" fill="#23262F"/>
</svg>
